<?xml version="1.0" encoding="UTF-8"?>
<!DOCTYPE svg PUBLIC "-//W3C//DTD SVG 1.1//EN" "http://www.w3.org/Graphics/SVG/1.1/DTD/svg11.dtd">
<!-- Creator: CorelDRAW 2017 -->
<svg xmlns="http://www.w3.org/2000/svg" xml:space="preserve" width="231.354mm" height="300.767mm" version="1.1" style="shape-rendering:geometricPrecision; text-rendering:geometricPrecision; image-rendering:optimizeQuality; fill-rule:evenodd; clip-rule:evenodd"
viewBox="0 0 2501.16 3251.58"
 xmlns:xlink="http://www.w3.org/1999/xlink">
 <defs>
  <style type="text/css">
   <![CDATA[
    .str0 {stroke:#2B2A29;stroke-width:108.11;stroke-miterlimit:22.9256}
    .fil0 {fill:none}
   ]]>
  </style>
 </defs>
 <g id="Ebene_x0020_1">
  <metadata id="CorelCorpID_0Corel-Layer"/>
  <g id="_1632609505712">
   <path class="fil0 str0" d="M1138.98 3178.19c-203.56,-73.07 -358.43,-363.35 -436.74,-512.14 -78.31,-148.8 -80.07,-156.11 -82.5,-163.84 -2.43,-7.73 -5.52,-15.87 -10.35,-55.32 -4.82,-39.45 -11.38,-110.2 -28.33,-148.68 -16.95,-38.48 -44.3,-44.69 -65.53,-54.67 -21.23,-9.98 -36.36,-23.74 -49.43,-43.14 -13.08,-19.4 -24.11,-44.46 -32.14,-68.47 -8.03,-24.01 -13.06,-46.98 -16.08,-66.33 -3.02,-19.35 -4.02,-35.09 -5.84,-54.47 -1.82,-19.38 -4.46,-42.39 -5.94,-67.22 -1.48,-24.82 -1.81,-51.45 0.21,-79.65 2.01,-28.2 6.36,-57.96 8.63,-80.69 2.28,-22.73 2.48,-38.44 0.91,-52.41 -1.57,-13.98 -4.9,-26.23 -9.76,-33.78 -4.85,-7.55 -11.22,-10.39 -17.45,-19.79 -6.23,-9.39 -12.31,-25.33 -17.05,-41.36 -4.74,-16.03 -8.14,-32.16 -9.97,-46.55 -1.83,-14.39 -2.09,-27.03 3.96,-28.5 6.05,-1.47 18.4,8.24 26.49,19.75 8.08,11.51 11.89,24.83 22.29,39.1 10.41,14.27 27.42,29.5 39.28,41.28 11.86,11.78 18.57,20.11 22.67,31.33 4.1,11.22 5.58,25.34 8.99,43.65 3.42,18.31 8.76,40.82 12.39,76.19 3.63,35.37 5.54,83.6 10.99,95.85 5.45,12.25 14.44,-11.47 21.78,-58.34 7.34,-46.88 13.01,-116.91 14.4,-179.14 1.39,-62.23 -1.52,-116.65 -1.98,-169.11 -0.46,-52.46 1.54,-102.95 7.1,-148.39 5.56,-45.44 14.68,-85.83 23.91,-117.93 9.23,-32.1 18.58,-55.92 29.74,-75.25 11.16,-19.33 24.14,-34.17 40.81,-43.26 16.67,-9.09 37.03,-12.43 61.91,-11.73 24.88,0.71 54.27,5.46 71.24,18.44 16.97,12.97 21.53,34.16 27.22,55.21 5.69,21.06 12.5,41.98 29.93,64.68 17.43,22.7 45.46,47.18 70.02,62.8 24.56,15.62 45.65,22.36 64.34,22.55 18.69,0.18 34.99,-6.19 48.05,-15.08 13.06,-8.88 22.87,-20.27 27.97,-32.71 5.1,-12.43 5.48,-25.91 4.96,-36.34 -0.52,-10.43 -1.95,-17.8 -4.53,-21.91 -2.58,-4.11 -6.3,-4.96 -9.2,0.39 -2.9,5.35 -4.98,16.9 -9.5,27.76 -4.52,10.86 -11.5,21.01 -22.53,25.94 -11.03,4.93 -26.12,4.64 -43.26,1.63 -17.14,-3 -36.33,-8.72 -53.04,-17.23 -16.71,-8.51 -30.94,-19.8 -43.49,-34.83 -12.56,-15.02 -23.44,-33.78 -29.04,-49.06 -5.6,-15.28 -5.91,-27.09 -0.77,-42.17 5.14,-15.08 15.73,-33.42 35.73,-46.12 19.99,-12.7 49.39,-19.75 74.3,-22.36 24.91,-2.61 45.33,-0.79 82.52,-3.22 37.19,-2.43 91.14,-9.11 131.11,-9.04 39.97,0.07 65.94,6.88 83.76,6.18 17.81,-0.7 27.45,-8.93 37.28,-17.86 9.82,-8.93 19.83,-18.56 25.78,-22.1 5.95,-3.54 7.85,-0.99 11.35,-1.62 3.49,-0.63 8.58,-4.46 13.67,-2.47 5.09,1.99 10.17,9.79 13.26,6.13 3.08,-3.65 4.16,-18.76 8.68,-29.01 4.52,-10.24 12.47,-15.63 16.69,-23.8 4.22,-8.17 4.71,-19.13 10,-25.52 5.29,-6.39 15.37,-8.21 27.33,-5.3 11.96,2.91 25.79,10.54 30.83,15.09 5.03,4.55 1.27,6.01 3.61,15.54 2.34,9.54 10.79,27.15 8.18,41.57 -2.61,14.42 -16.27,25.65 -24.88,44.12 -8.61,18.47 -12.16,44.18 -5.65,50.25 6.52,6.07 23.11,-7.51 33.2,-18.23 10.09,-10.72 13.68,-18.59 25.82,-21.07 12.14,-2.48 32.84,0.43 43.9,6.23 11.07,5.8 12.51,14.49 18.29,16.9 5.78,2.41 15.88,-1.45 31.96,6.62 16.07,8.07 38.12,28.07 53.27,36.87 15.15,8.81 23.41,6.42 33.33,6.18 9.92,-0.24 21.49,1.67 27.27,2.62 5.79,0.95 5.79,0.95 11.54,-15.63 5.75,-16.58 17.26,-49.75 28.7,-62.89 11.44,-13.14 22.81,-6.27 40.59,5.63 17.78,11.89 41.97,28.8 65.73,38.29 23.76,9.49 47.08,11.57 60.72,12.03 13.63,0.47 17.57,-0.67 28.97,4.52 11.4,5.19 30.26,16.7 47.39,33.89 17.13,17.2 32.52,40.08 41.02,53.19 8.5,13.11 10.1,16.43 12.78,25.83 2.68,9.39 6.45,24.85 12.01,34.61 5.55,9.76 12.9,13.82 15.86,30.7 2.96,16.88 1.54,46.59 1.83,82.47 0.29,35.88 2.3,77.93 5.21,116.12 2.92,38.19 6.74,72.53 12.67,127.08 5.93,54.55 13.96,129.3 21.85,166.06 7.89,36.76 15.63,35.53 25.04,17.2 9.41,-18.33 20.5,-53.76 31.26,-80.78 10.76,-27.02 21.19,-45.64 31.22,-58.31 10.03,-12.67 19.65,-19.4 27.74,-22.7 8.08,-3.3 14.63,-3.17 22.5,30.84 7.88,34.01 17.08,101.9 16.91,175.17 -0.18,73.28 -9.73,151.94 -24.55,215.96 -14.81,64.02 -34.89,113.4 -53.35,145.66 -18.46,32.25 -35.31,47.38 -45.36,55.39 -10.05,8.01 -13.31,8.9 -24.24,7.92 -10.93,-0.98 -29.53,-3.84 -72.86,109.65 -43.32,113.5 -111.36,343.35 -271.51,530.35 -160.15,187 -412.41,331.15 -615.97,258.08z"/>
   <path class="fil0 str0" d="M361.19 1566.99c-0.43,-11.11 -0.85,-22.23 -3.15,-30.74 -2.3,-8.51 -6.48,-14.42 -7.78,-20.58 -1.3,-6.16 0.27,-12.56 -1.87,-21.75 -2.14,-9.18 -7.98,-21.14 -17.43,-34.57 -9.45,-13.43 -22.52,-28.34 -31.77,-39.36 -9.25,-11.02 -14.69,-18.14 -19.6,-26.56 -4.91,-8.42 -9.29,-18.15 -13.58,-26.97 -4.29,-8.82 -8.49,-16.72 -11.59,-24.56 -3.09,-7.84 -5.07,-15.6 -6.15,-22.71 -1.08,-7.1 -1.27,-13.54 -1.67,-17.78 -0.4,-4.23 -1.03,-6.27 -3.25,-15.5 -2.22,-9.23 -6.05,-25.66 -12.97,-38.8 -6.92,-13.14 -16.92,-22.98 -25.07,-31.75 -8.15,-8.78 -14.45,-16.48 -18.72,-23.44 -4.26,-6.96 -6.49,-13.16 -7.32,-17.92 -0.83,-4.76 -0.28,-8.09 1.67,-13.45 1.95,-5.36 5.3,-12.75 6.98,-16.45 1.68,-3.7 1.68,-3.7 -3.32,-6.34 -5,-2.64 -15,-7.91 -20,-10.55 -5,-2.64 -5,-2.64 -5.72,-4.45 -0.72,-1.81 -2.17,-5.43 -3.62,-9.05"/>
   <path class="fil0 str0" d="M150.16 1114.18c-7.7,-5.27 -15.4,-10.53 -24.68,-19.62 -9.28,-9.09 -20.12,-22.01 -30.94,-39.14 -10.81,-17.13 -21.59,-38.46 -28.46,-56.05 -6.87,-17.59 -9.83,-31.43 -11.2,-43.53 -1.38,-12.1 -1.18,-22.46 1.71,-38.09 2.89,-15.63 8.46,-36.52 12.36,-50.64 3.89,-14.12 6.11,-21.45 10.04,-28.81 3.93,-7.36 9.58,-14.74 15.04,-20.22 5.46,-5.48 10.72,-9.06 15.91,-12.23 5.19,-3.17 10.31,-5.91 14.9,-7.2 4.58,-1.28 8.63,-1.1 13.41,0.5 4.78,1.61 10.29,4.63 15.15,7.07 4.86,2.44 9.09,4.29 11.2,5.22 2.11,0.93 2.11,0.93 2.41,-3.77 0.3,-4.69 0.89,-14.07 1.01,-24.42 0.12,-10.34 -0.23,-21.65 0.59,-29.82 0.83,-8.17 2.83,-13.21 9.49,-21.03 6.66,-7.81 17.96,-18.4 28.49,-26.48 10.53,-8.09 20.28,-13.68 29.4,-17.78 9.12,-4.1 17.6,-6.7 21.85,-8 4.24,-1.3 4.24,-1.3 3.29,-7.24 -0.95,-5.94 -2.86,-17.83 -5.74,-27.42 -2.87,-9.59 -6.71,-16.89 -8.3,-22.39 -1.59,-5.5 -0.94,-9.21 -0.62,-11.06 0.33,-1.85 0.33,-1.85 -0.68,-2.44 -1.01,-0.58 -3.03,-1.74 -4.04,-2.32 -1.01,-0.58 -1.01,-0.58 -4.56,-6.96 -3.55,-6.37 -10.66,-19.12 -15.37,-29.99 -4.71,-10.86 -7.02,-19.84 -5.45,-23.12 1.57,-3.28 7.02,-0.87 9.74,0.33 2.73,1.21 2.73,1.21 6.17,-0.18 3.45,-1.38 10.34,-4.15 12.55,-6.57 2.22,-2.42 -0.24,-4.49 8.52,-7.58 8.77,-3.09 28.75,-7.2 40.34,-9.8 11.59,-2.6 14.78,-3.69 17.28,-6.93 2.5,-3.24 4.32,-8.64 6.07,-14.77 1.75,-6.13 3.44,-12.98 7.22,-21.22 3.78,-8.23 9.65,-17.85 14.74,-25.07 5.09,-7.22 9.41,-12.06 13.62,-15.11 4.21,-3.05 8.33,-4.32 10.38,-4.96 2.06,-0.64 2.06,-0.64 -0.49,4.45 -2.54,5.09 -7.63,15.26 -10.17,20.35 -2.54,5.09 -2.54,5.09 0.31,5.45 2.85,0.37 8.55,1.1 14.1,1.32 5.56,0.23 10.97,-0.05 14.15,-1.97 3.18,-1.92 4.14,-5.48 2.79,-13.16 -1.35,-7.68 -5.01,-19.49 -6.84,-25.39 -1.83,-5.9 -1.83,-5.9 -1.2,-7.51 0.63,-1.61 1.9,-4.83 2.53,-6.44 0.63,-1.61 0.63,-1.61 1.52,-12.25 0.89,-10.64 2.66,-31.92 3.54,-42.56 0.89,-10.64 0.89,-10.64 3.43,-7.51 2.54,3.14 7.63,9.4 11.62,15.21 3.99,5.81 6.89,11.16 10.06,15.02 3.18,3.86 6.64,6.23 8.37,4.23 1.73,-1.99 1.73,-8.35 4.26,-9.67 2.53,-1.32 7.6,2.4 12.69,4.94 5.09,2.54 10.19,3.91 12.81,0.85 2.62,-3.06 2.76,-10.55 2.49,-19.91 -0.27,-9.35 -0.96,-20.56 -2.04,-28.84 -1.09,-8.28 -2.58,-13.63 -0.32,-33.08 2.26,-19.45 8.26,-52.99 13.8,-79.42 5.54,-26.42 10.6,-45.73 15.08,-59.61 4.48,-13.88 8.37,-22.33 13.03,-30.5 4.66,-8.17 10.08,-16.07 14.43,-24.14 4.36,-8.08 7.64,-16.34 11.82,-25.03 4.18,-8.69 9.24,-17.81 11.77,-22.36 2.53,-4.56 2.53,-4.56 6.58,-2.24 4.04,2.32 12.13,6.96 23.13,9.76 11,2.79 24.91,3.73 48.36,8.82 23.45,5.09 56.44,14.33 81.05,22.98 24.61,8.65 40.83,16.72 49.54,19.19 8.71,2.47 9.9,-0.66 13.38,-3.66 3.48,-3 9.26,-5.86 18.45,-7.47 9.18,-1.61 21.76,-1.98 32.22,0.6 10.45,2.58 18.77,8.09 25.71,13.94 6.94,5.85 12.49,12.03 18.26,16.9 5.77,4.87 11.77,8.43 17.31,8.3 5.54,-0.13 10.63,-3.94 13.92,-3.68 3.3,0.27 4.81,4.62 5.43,7.65 0.62,3.04 0.35,4.76 4.69,9.58 4.33,4.82 13.26,12.73 17.73,16.69 4.47,3.96 4.47,3.96 5.42,-7.49 0.95,-11.44 2.86,-34.33 3.81,-45.78 0.95,-11.44 0.95,-11.44 3.5,2.05 2.54,13.49 7.63,40.48 12.31,55.93 4.68,15.46 8.95,19.38 13.06,21.17 4.11,1.79 8.06,1.45 11.65,2.29 3.59,0.84 6.84,2.88 8.77,2.86 1.93,-0.02 2.55,-2.11 6.59,-3.12 4.05,-1.02 11.52,-0.97 15.97,1.58 4.45,2.54 5.88,7.58 9.98,9.32 4.1,1.74 10.87,0.19 16.53,0.15 5.65,-0.04 10.19,1.42 13.59,1.3 3.4,-0.12 5.66,-1.81 12.09,-3.67 6.43,-1.86 17.02,-3.9 22.95,-2.37 5.93,1.53 7.2,6.61 8.81,8.35 1.61,1.73 3.56,0.12 4.83,-2.43 1.27,-2.54 1.87,-6.01 5.01,-7.27 3.15,-1.26 8.85,-0.3 26.21,8.21 17.36,8.51 46.37,24.59 60.88,32.62 14.51,8.04 14.51,8.04 18.48,6.66 3.98,-1.38 11.92,-4.14 16.82,-4.39 4.9,-0.25 6.74,2.01 10.2,3.14 3.46,1.13 8.55,1.13 11.64,-0.32 3.1,-1.45 4.2,-4.35 5.35,-6.36 1.15,-2.01 2.36,-3.13 2.95,-8.56 0.59,-5.43 0.58,-15.16 2.6,-21.41 2.02,-6.25 6.09,-9.03 8.12,-10.42 2.03,-1.39 2.03,-1.39 5.24,0.21 3.21,1.6 9.62,4.79 15.35,6.7 5.72,1.91 10.75,2.53 13.27,2.84 2.51,0.31 2.51,0.31 2.94,-0.54 0.43,-0.85 1.29,-2.55 1.93,-5.73 0.64,-3.18 1.05,-7.84 1.25,-10.16 0.21,-2.33 0.21,-2.33 3.13,-1.28 2.93,1.04 8.78,3.13 13.36,3.75 4.58,0.62 7.9,-0.22 11.33,-3.42 3.43,-3.2 6.98,-8.76 10.86,-14.2 3.88,-5.44 8.08,-10.75 9.99,-15.58 1.91,-4.84 1.51,-9.2 1.31,-11.38 -0.2,-2.18 -0.2,-2.18 1.84,-1.21 2.04,0.97 6.12,2.91 10.28,3.34 4.16,0.43 8.4,-0.65 15.89,-2.89 7.5,-2.24 18.25,-5.64 23.63,-7.34 5.38,-1.7 5.38,-1.7 5.38,0.21 0,1.91 0,5.72 0,7.63 0,1.91 0,1.91 -3.42,2.82 -3.42,0.91 -10.27,2.73 -16.81,5.55 -6.54,2.82 -12.76,6.64 -17.79,11.17 -5.03,4.53 -8.87,9.78 -10.6,15.87 -1.73,6.08 -1.34,13 -1.15,16.46 0.19,3.46 0.19,3.46 4.63,-1.43 4.43,-4.89 13.3,-14.66 20.25,-21.98 6.94,-7.32 11.96,-12.18 17.7,-15.56 5.74,-3.38 12.2,-5.27 15.43,-6.22 3.23,-0.95 3.23,-0.95 2.65,1.97 -0.58,2.91 -1.75,8.74 -4.68,13.1 -2.93,4.35 -7.61,7.23 -10.59,9.82 -2.98,2.59 -4.25,4.89 -5.14,7.53 -0.89,2.64 -1.39,5.62 -1.65,7.11 -0.25,1.49 -0.25,1.49 4.39,-1.5 4.64,-2.99 13.92,-8.97 21.22,-14.55 7.3,-5.58 12.61,-10.78 15.66,-16.74 3.05,-5.96 3.83,-12.69 5.31,-19.39 1.48,-6.7 3.67,-13.36 6.87,-17.06 3.2,-3.69 7.42,-4.42 11.99,-2.95 4.57,1.47 9.5,5.15 16.85,4.31 7.35,-0.83 17.11,-6.18 35.5,-15.04 18.39,-8.86 45.4,-21.24 63.87,-28.83 18.47,-7.59 28.39,-10.38 34.37,-11.31 5.98,-0.93 8.03,-0 16.46,-1.19 8.44,-1.18 23.27,-4.48 30.69,-6.13 7.42,-1.65 7.42,-1.65 9.32,1.53 1.91,3.18 5.72,9.53 9.54,12.07 3.82,2.54 7.63,1.28 11.22,3.03 3.59,1.75 6.96,6.52 13.1,13.11 6.14,6.59 15.06,15 22.91,20.24 7.85,5.25 14.65,7.33 18.04,8.37 3.4,1.04 3.4,1.04 4.49,-0.99 1.1,-2.03 3.29,-6.09 7.04,-9.39 3.75,-3.3 9.07,-5.86 14.33,-7.01 5.26,-1.15 10.47,-0.9 13.07,-0.77 2.6,0.13 2.6,0.13 2.96,6.74 0.36,6.62 1.08,19.86 0.5,33.31 -0.58,13.45 -2.47,27.12 -3.52,38.39 -1.05,11.27 -1.28,20.13 1.3,26.73 2.58,6.6 7.95,10.93 10.63,13.09 2.69,2.17 2.69,2.17 5.78,-5.81 3.09,-7.97 9.28,-23.91 13.25,-29.63 3.96,-5.72 5.7,-1.21 7.32,0.36 1.62,1.57 3.12,0.22 15.63,-0.04 12.5,-0.25 36.01,0.6 65.33,1.88 29.32,1.29 64.45,3.01 93.85,6.47 29.4,3.46 53.06,8.66 74.5,14.57 21.44,5.91 40.65,12.53 58.55,24.6 17.9,12.07 34.48,29.6 46.45,50.17 11.96,20.57 19.3,44.19 19.6,65.73 0.3,21.55 -6.45,41.02 -15.64,61.51 -9.19,20.49 -20.84,41.98 -28.4,53.77 -7.56,11.78 -11.04,13.86 -12.78,14.89 -1.74,1.04 -1.74,1.04 0.35,10.37 2.09,9.33 6.28,28 8.93,49.12 2.65,21.12 3.77,44.69 5.37,59.78 1.6,15.09 3.68,21.69 2.83,29.9 -0.85,8.21 -4.63,18.04 -6.49,27.12 -1.86,9.08 -1.81,17.41 2.72,27.32 4.53,9.91 13.53,21.41 20.71,29.53 7.17,8.12 12.51,12.87 21.58,18.77 9.07,5.89 21.87,12.93 29.23,19.91 7.36,6.99 9.28,13.92 10.15,19.44 0.87,5.52 0.7,9.61 3.18,12.51 2.48,2.9 7.62,4.6 19.37,11.4 11.76,6.8 30.14,18.69 43.82,27.64 13.69,8.94 22.69,14.94 29.31,22.39 6.63,7.45 10.88,16.35 19.68,24.56 8.8,8.21 22.13,15.74 28.8,19.5 6.67,3.76 6.67,3.76 7.24,1.37 0.57,-2.39 1.7,-7.17 2.27,-9.57 0.57,-2.39 0.57,-2.39 3.53,1.34 2.97,3.73 8.9,11.2 16.43,22.52 7.53,11.31 16.65,26.48 22.74,46.66 6.09,20.19 9.13,45.4 12.48,63.18 3.35,17.78 7,28.13 9.46,33.3 2.46,5.18 3.73,5.18 4.37,5.18 0.64,0 0.64,0 0,-5.09 -0.64,-5.09 -1.91,-15.26 -2.54,-20.35 -0.64,-5.09 -0.64,-5.09 0.64,-5.09 1.27,0 3.82,0 5.09,0 1.27,0 1.27,0 2.48,3.27 1.21,3.27 3.62,9.82 4.83,16.49 1.21,6.67 1.22,13.47 -1.41,30.23 -2.63,16.76 -7.9,43.47 -13.35,63.96 -5.45,20.49 -11.08,34.75 -16.36,45.44 -5.28,10.7 -10.21,17.83 -15.05,23.56 -4.84,5.73 -9.58,10.05 -15,14.74 -5.42,4.69 -11.51,9.74 -15.71,14.06 -4.19,4.32 -6.48,7.92 -7.39,12.26 -0.91,4.34 -0.45,9.41 0.21,14.16 0.66,4.75 1.53,9.17 0.93,17.18 -0.6,8.01 -2.67,19.61 -5.57,31.18 -2.9,11.57 -6.65,23.11 -8.85,32.29 -2.19,9.18 -2.84,16.02 -3.22,19.64 -0.38,3.63 -0.48,4.05 -1.95,4.83 -1.47,0.78 -4.3,1.92 -8,2.95 -3.71,1.04 -8.3,1.97 -12.78,2.6 -4.48,0.63 -8.84,0.97 -12.01,3.13 -3.17,2.16 -5.14,6.15 -11.34,21.03 -6.2,14.87 -16.62,40.63 -24.57,59.16 -7.95,18.53 -13.43,29.84 -16.55,38.51 -3.13,8.67 -3.91,14.72 -3.86,28.42 0.05,13.7 0.93,35.06 1.02,48.54 0.09,13.48 -0.61,19.08 -2.11,26 -1.5,6.92 -3.79,15.16 -6.16,20.55 -2.38,5.39 -4.84,7.93 -7.96,10.51 -3.12,2.58 -6.91,5.19 -9.76,7.38 -2.85,2.19 -4.76,3.94 -5.71,4.82 -0.95,0.88 -0.95,0.88 -0.95,0.88"/>
   <path class="fil0 str0" d="M398.96 511.07c-3.35,2.98 -10.95,6.03 -16.39,7.76 -5.44,1.74 -8.73,2.16 -13.79,1.57 -5.06,-0.59 -11.88,-2.2 -16.34,-3.63 -4.46,-1.43 -6.55,-2.69 -8.47,-4.14 -1.92,-1.45 -3.66,-3.09 -4.62,-4.74 -0.97,-1.65 -1.16,-3.32 -1.36,-5.36 -0.2,-2.04 -0.41,-4.46 -0.98,-6.92 -0.58,-2.47 -1.52,-4.98 -1.99,-6.24 -0.47,-1.26 -0.47,-1.26 9.07,-1.26 9.54,0 28.61,0 38.15,0 9.54,0 9.54,0 10.19,0.95 0.65,0.95 1.96,2.84 3.42,5.2 1.46,2.36 3.06,5.19 4.32,8.06 1.25,2.87 2.16,5.77 -1.19,8.75z"/>
   <path class="fil0 str0" d="M422.29 461.41c-1.98,-1.75 -3.96,-3.51 -5.78,-5.85 -1.82,-2.34 -3.49,-5.28 -4.4,-8.4 -0.91,-3.12 -1.07,-6.42 -0.97,-9.18 0.1,-2.77 0.46,-5 0.79,-7.34 0.33,-2.34 0.64,-4.8 0.74,-6.98 0.11,-2.18 0.01,-4.09 -0.28,-5.9 -0.29,-1.82 -0.77,-3.54 -1.02,-4.4 -0.24,-0.86 -0.24,-0.86 1.62,-0.97 1.86,-0.11 5.58,-0.34 9.3,-0.56"/>
   <path class="fil0 str0" d="M422.32 411.38c0.39,3.02 0.78,6.03 1.9,9.86 1.11,3.83 2.94,8.48 4.09,12.36 1.15,3.88 1.63,6.99 1.36,10.03 -0.27,3.04 -1.28,6.01 -2.63,8.96 -1.35,2.95 -3.05,5.88 -4.75,8.81"/>
   <path class="fil0 str0" d="M466.05 432.19c-1.36,1.54 -4.72,0.58 -7.67,-0.88 -2.95,-1.46 -5.48,-3.4 -7.83,-6.18 -2.34,-2.78 -4.5,-6.41 -5.94,-9.24 -1.44,-2.83 -2.16,-4.88 -2.58,-6.06 -0.42,-1.18 -0.55,-1.5 2.57,-1.66 3.12,-0.16 9.47,-0.16 12.65,-0.16 3.18,0 3.18,0 4.12,2.42 0.94,2.42 2.83,7.27 4.11,11.72 1.27,4.45 1.93,8.51 0.57,10.05z"/>
   <path class="fil0 str0" d="M473.27 414.67c-1.26,-0.96 -3.23,-3.82 -4.22,-5.24 -0.99,-1.43 -0.99,-1.43 0.84,-1.47 1.83,-0.04 5.49,-0.12 8.8,0.11 3.31,0.23 6.27,0.78 8.95,1.72 2.68,0.94 5.09,2.27 6.8,3.53 1.71,1.26 2.73,2.46 2.84,3.51 0.11,1.05 -0.69,1.94 -1.82,2.53 -1.13,0.6 -2.58,0.91 -3.3,1.06 -0.73,0.15 -0.73,0.15 -0.85,-0.11 -0.12,-0.26 -0.36,-0.79 -1.11,-1.43 -0.75,-0.64 -2.01,-1.38 -3.68,-2.16 -1.66,-0.78 -3.74,-1.6 -5.28,-2.12 -1.55,-0.52 -2.57,-0.74 -3.42,-0.83 -0.85,-0.09 -1.53,-0.05 -2.14,0.44 -0.61,0.49 -1.16,1.42 -2.42,0.46z"/>
   <path class="fil0 str0" d="M560.22 360.37c0.6,3.23 -2.01,4.6 -3.89,6.31 -1.88,1.71 -3.04,3.76 -3.91,5.68 -0.88,1.91 -1.48,3.69 -5.32,5.16 -3.84,1.47 -10.92,2.62 -18.21,1.69 -7.29,-0.93 -14.79,-3.94 -20.86,-11.24 -6.08,-7.29 -10.74,-18.86 -12.7,-34.52 -1.96,-15.66 -1.22,-35.4 2.55,-50.13 3.76,-14.73 10.55,-24.46 22.61,-31.45 12.07,-7 29.41,-11.27 38.21,-11.82 8.8,-0.55 9.06,2.61 10.33,5.15 1.27,2.54 3.56,4.47 5.12,3.48 1.56,-0.98 2.4,-4.88 4.17,-8.47 1.77,-3.59 4.47,-6.89 9.86,-8.8 5.39,-1.91 13.47,-2.44 21.65,-1.41 8.18,1.03 16.47,3.62 22.53,8.58 6.07,4.96 9.92,12.29 12.05,23.12 2.13,10.83 2.54,25.15 2.75,32.32 0.21,7.16 0.21,7.16 -1.7,5.26 -1.91,-1.91 -5.72,-5.72 -7.63,-7.63 -1.91,-1.91 -1.91,-1.91 -3.82,1.27 -1.91,3.18 -5.72,9.54 -7.63,12.72 -1.91,3.18 -1.91,3.18 -5.8,3.19 -3.9,0.01 -11.68,0.04 -15.58,0.05 -3.9,0.01 -3.9,0.01 -4.09,0.88 -0.19,0.87 -0.58,2.6 -8.77,8.94 -8.18,6.35 -24.17,17.31 -32.16,22.79 -7.99,5.48 -7.99,5.48 -6.08,8.02 1.91,2.54 5.72,7.63 6.32,10.86z"/>
   <path class="fil0 str0" d="M473.59 372.91c2.98,-4.57 3.85,-13.72 4.28,-18.3 0.44,-4.57 0.44,-4.57 -0.27,-7.68 -0.71,-3.1 -2.12,-9.31 -3.21,-17.1 -1.09,-7.79 -1.86,-17.16 -1.58,-27.92 0.27,-10.76 1.58,-22.91 2.24,-28.99 0.66,-6.07 0.66,-6.07 2.17,-7.33 1.51,-1.25 4.53,-3.75 8.25,-7.01 3.72,-3.25 8.13,-7.26 12.79,-11.7 4.67,-4.44 9.59,-9.33 14.51,-12.69 4.92,-3.36 9.85,-5.2 13.21,-7.77 3.36,-2.57 5.15,-5.87 9.86,-7.52 4.71,-1.65 12.34,-1.65 18.06,-2.92 5.72,-1.27 9.54,-3.82 15.93,-4.72 6.4,-0.9 15.37,-0.17 24.27,-0.81 8.9,-0.64 17.73,-2.64 22.14,-3.64 4.41,-1 4.41,-1 3.14,-2.52 -1.27,-1.52 -3.81,-4.55 -5.21,-6.12 -1.4,-1.58 -1.66,-1.69 -3.46,-0.63 -1.8,1.06 -5.14,3.31 -6.81,4.43 -1.67,1.12 -1.67,1.12 -6.63,0.45 -4.96,-0.67 -14.87,-2.01 -19.83,-2.68 -4.96,-0.67 -4.96,-0.67 -5.83,1.09 -0.87,1.76 -2.62,5.28 -3.5,7.04 -0.87,1.76 -0.87,1.76 -2.78,2.08 -1.91,0.32 -5.72,0.95 -7.63,1.27 -1.91,0.32 -1.91,0.32 -1.91,-0.64 0,-0.95 0,-2.86 0,-3.82 0,-0.95 0,-0.95 -3.18,-0.32 -3.18,0.64 -9.54,1.91 -12.71,2.54 -3.18,0.64 -3.18,0.64 -3.18,1.91 0,1.27 0,3.82 0,5.09 0,1.27 0,1.27 -5.09,3.18 -5.09,1.91 -15.26,5.72 -20.35,7.63 -5.09,1.91 -5.09,1.91 -5.09,0 0,-1.91 0,-5.72 0,-7.63 0,-1.91 0,-1.91 -2.96,-1.61 -2.96,0.3 -8.89,0.91 -12.43,1.62 -3.55,0.71 -4.72,1.53 -7.48,2.5 -2.76,0.97 -7.11,2.09 -9.28,2.65 -2.17,0.56 -2.17,0.56 -2.12,6.07 0.05,5.51 0.16,16.54 0.21,22.05 0.05,5.51 0.05,5.51 0.64,6.99 0.58,1.48 1.75,4.44 2.33,5.92 0.58,1.48 0.58,1.48 -0.69,0.85 -1.27,-0.64 -3.82,-1.91 -5.09,-2.54 -1.27,-0.64 -1.27,-0.64 -1.31,1.13 -0.03,1.76 -0.1,5.29 -1.3,11.04 -1.2,5.75 -3.53,13.73 -5.16,24.71 -1.62,10.98 -2.53,24.97 -2.6,38.3 -0.07,13.32 0.7,25.97 3.63,32.3 2.93,6.33 8.01,6.33 10.99,1.75z"/>
   <path class="fil0 str0" d="M487.09 183.82c2.19,-5.35 5.06,-11.85 8.49,-17.06 3.43,-5.21 7.41,-9.13 11.95,-14.23 4.54,-5.1 9.65,-11.38 13.21,-18.7 3.57,-7.33 5.6,-15.7 9.09,-22.21 3.49,-6.51 8.44,-11.16 13.17,-13.07 4.73,-1.91 9.24,-1.1 14.31,2.68 5.07,3.78 10.69,10.52 16.47,19.02 5.78,8.5 11.73,18.77 17.14,27.78 5.41,9.01 10.29,16.76 13.25,22.37 2.96,5.61 4,9.08 4.52,10.81 0.52,1.73 0.52,1.73 -0.52,2.21 -1.04,0.48 -3.13,1.43 -4.17,1.91 -1.04,0.48 -1.04,0.48 -11.99,0.91 -10.94,0.43 -32.83,1.3 -47.16,2.88 -14.34,1.58 -21.13,3.88 -27.97,6.57 -6.85,2.69 -13.75,5.77 -19.2,7.59 -5.45,1.82 -9.45,2.39 -11.83,1.23 -2.39,-1.16 -3.16,-4.05 -2.8,-7.59 0.36,-3.54 1.86,-7.73 4.04,-13.08z"/>
   <path class="fil0 str0" d="M676.57 186.34c-11.17,0.44 -19.38,-0.16 -27.57,-2.18 -8.19,-2.01 -16.36,-5.43 -20.92,-9.36 -4.56,-3.92 -5.51,-8.34 -7.2,-13.8 -1.69,-5.46 -4.12,-11.96 -5.33,-15.21 -1.21,-3.25 -1.21,-3.25 -0.64,-3.93 0.57,-0.68 1.71,-2.04 2.77,-4.85 1.05,-2.81 2.02,-7.05 2.5,-9.18 0.48,-2.12 0.48,-2.12 -2.75,-2.61 -3.23,-0.49 -9.69,-1.46 -15.21,-4.23 -5.52,-2.78 -10.11,-7.36 -13.87,-12.59 -3.76,-5.24 -6.7,-11.13 -8.18,-14.07 -1.47,-2.95 -1.47,-2.95 3.6,-3.33 5.07,-0.38 15.22,-1.14 23.84,-0.96 8.62,0.19 15.73,1.32 21.88,3.83 6.15,2.51 11.35,6.39 19.89,11.93 8.54,5.54 20.43,12.73 26.37,16.32 5.94,3.59 5.94,3.59 3.44,3.98 -2.5,0.38 -7.51,1.15 -11.81,1.87 -4.3,0.72 -7.89,1.41 -10.83,0.64 -2.93,-0.77 -5.2,-2.98 -6.62,-4.98 -1.42,-2 -2,-3.77 -2.29,-4.66 -0.29,-0.89 -0.29,-0.89 -4.08,-0.15 -3.79,0.73 -11.38,2.2 -15.17,2.93 -3.79,0.73 -3.79,0.73 -2.81,2.78 0.98,2.05 2.96,6.16 6.47,9.25 3.51,3.1 8.57,5.18 14.91,6.73 6.34,1.54 13.95,2.55 20.99,3.86 7.04,1.32 13.51,2.95 18.88,6.25 5.37,3.3 9.66,8.27 11.8,10.75 2.14,2.48 2.14,2.48 -1.67,1.85 -3.81,-0.64 -11.44,-1.91 -15.26,-2.54 -3.81,-0.64 -3.81,-0.64 -2.9,1.13 0.92,1.77 2.75,5.3 5.69,7.57 2.94,2.26 6.98,3.25 11.03,3.79 4.05,0.54 8.09,0.62 11.51,2.17 3.42,1.55 6.21,4.57 7.61,6.08 1.4,1.51 1.4,1.51 -5.67,2.25 -7.07,0.74 -21.21,2.22 -32.39,2.66z"/>
   <path class="fil0 str0" d="M1983.86 265.18c7.24,-6.34 41.04,0.33 66.86,9.13 25.82,8.81 43.66,19.75 52.99,33.23 9.33,13.48 10.14,29.5 5.54,47.07 -4.6,17.57 -14.61,36.7 -22.04,39.52 -7.42,2.82 -12.25,-10.66 -17.61,-22.53 -5.36,-11.87 -11.26,-22.11 -20.41,-32.07 -9.15,-9.96 -21.55,-19.62 -37.41,-34.13 -15.86,-14.51 -35.16,-33.87 -27.92,-40.21z"/>
   <path class="fil0 str0" d="M2364.53 1015.67c-3.67,-5.2 -7.4,-14.93 -11.01,-26.02 -3.61,-11.08 -7.1,-23.51 -9.78,-36.12 -2.69,-12.61 -4.57,-25.39 -4.25,-31.78 0.33,-6.39 2.87,-6.39 4.57,-4.47 1.7,1.92 2.55,5.75 5.8,10.84 3.25,5.09 8.88,11.44 13.85,21.47 4.97,10.03 9.27,23.73 11.11,36.44 1.84,12.71 1.23,24.42 -0.89,29.95 -2.11,5.53 -5.73,4.88 -9.4,-0.32z"/>
   <path class="fil0 str0" d="M2409.86 1084.11c-2.45,4.72 -4.81,14.15 -6.71,23.69 -1.91,9.54 -3.37,19.18 -0.82,23.33 2.54,4.15 9.09,2.82 13.41,-0.66 4.31,-3.48 6.39,-9.1 6.29,-17.97 -0.1,-8.87 -2.36,-20.99 -4.77,-27.05 -2.4,-6.06 -4.95,-6.06 -7.4,-1.34z"/>
   <path class="fil0 str0" d="M2391.73 1148.87c-2.31,3 -3.59,10.63 -2.12,13.22 1.46,2.59 5.67,0.16 7.98,-2.84 2.31,-3 2.74,-6.56 1.28,-9.15 -1.46,-2.59 -4.82,-4.22 -7.14,-1.23z"/>
  </g>
 </g>
</svg>
